<svg xmlns="http://www.w3.org/2000/svg" viewBox="0 0 427.30 143.00" width="427.30" height="143.00"><mask id="mink"><rect x="-1" y="-3" width="120" height="150" fill="white"/><path d="M 39.00 61.00 L 50.00 61.00 L 55.00 61.00 L 59.00 46.00 L 63.00 70.00 L 67.00 61.00 L 77.00 61.00" fill="none" stroke="black" stroke-width="6.0" stroke-linecap="round" stroke-linejoin="round"/><circle cx="77.00" cy="61.00" r="5.2" fill="black"/></mask><path fill="#102A33" d="M 59.00 117.00 L 31.86 77.78 A 33.00 33.00 0 1 1 86.14 77.78 Z" mask="url(#mink)"/><g transform="translate(122.00,83.00) scale(0.06443,-0.06443)"><path fill="#102A33" d="M422.0 -12Q342.0 -12 274.5 17.0Q207.0 46 156.5 98.0Q106.0 150 78.0 220.0Q50.0 290 50.0 373Q50.0 456 77.5 526.5Q105.0 597 155.5 648.5Q206.0 700 274.0 728.5Q342.0 757 422.0 757Q502.0 757 565.5 730.0Q629.0 703 673.0 658.5Q717.0 614 736.0 561L614.0 504Q593.0 560 543.0 596.5Q493.0 633 422.0 633Q352.0 633 298.5 600.0Q245.0 567 215.5 509.0Q186.0 451 186.0 373Q186.0 295 215.5 236.5Q245.0 178 298.5 145.0Q352.0 112 422.0 112Q493.0 112 543.0 148.5Q593.0 185 614.0 241L736.0 184Q717.0 131 673.0 86.5Q629.0 42 565.5 15.0Q502.0 -12 422.0 -12ZM835.0 0V544H966.0V0ZM835.0 605V745H966.0V605ZM1251.0 0 1037.0 544H1180.0L1309.0 189L1438.0 544H1581.0L1367.0 0ZM1653.0 0V544H1784.0V0ZM1653.0 605V745H1784.0V605Z"/><path fill="#102A33" d="M2094.0 0V745H2337.0Q2455.0 745 2542.5 697.5Q2630.0 650 2678.0 566.5Q2726.0 483 2726.0 373Q2726.0 264 2678.0 179.5Q2630.0 95 2542.5 47.5Q2455.0 0 2337.0 0ZM2230.0 120H2340.0Q2416.0 120 2471.5 151.5Q2527.0 183 2558.0 239.5Q2589.0 296 2589.0 373Q2589.0 451 2558.0 507.0Q2527.0 563 2471.5 594.0Q2416.0 625 2340.0 625H2230.0ZM2988.0 -12Q2931.0 -12 2889.0 7.0Q2847.0 26 2824.0 61.5Q2801.0 97 2801.0 144Q2801.0 189 2821.0 224.5Q2841.0 260 2883.0 284.0Q2925.0 308 2989.0 318L3151.0 344V362Q3151.0 397 3123.5 420.5Q3096.0 444 3051.0 444Q3009.0 444 2976.5 421.5Q2944.0 399 2929.0 362L2822.0 414Q2838.0 457 2872.5 488.5Q2907.0 520 2954.0 538.0Q3001.0 556 3056.0 556Q3123.0 556 3174.0 531.5Q3225.0 507 3253.5 463.5Q3282.0 420 3282.0 362V0H3158.0V57Q3148.0 46 3136.0 37Q3107.0 13 3070.0 0.5Q3033.0 -12 2988.0 -12ZM3151.0 244 3014.0 221Q2975.0 214 2956.0 196.0Q2937.0 178 2937.0 149Q2937.0 121 2958.5 104.5Q2980.0 88 3012.0 88Q3053.0 88 3084.5 105.5Q3116.0 123 3133.5 154.0Q3151.0 185 3151.0 222ZM3651.0 -6Q3559.0 -6 3508.5 44.5Q3458.0 95 3458.0 187V427H3364.0V544H3374.0Q3414.0 544 3436.0 565.0Q3458.0 586 3458.0 626V668H3589.0V544H3714.0V427H3589.0V194Q3589.0 167 3598.5 148.0Q3608.0 129 3628.5 119.0Q3649.0 109 3681.0 109Q3688.0 109 3697.5 110.0Q3707.0 111 3716.0 112V0Q3702.0 -2 3684.0 -4.0Q3666.0 -6 3651.0 -6ZM3981.0 -12Q3924.0 -12 3882.0 7.0Q3840.0 26 3817.0 61.5Q3794.0 97 3794.0 144Q3794.0 189 3814.0 224.5Q3834.0 260 3876.0 284.0Q3918.0 308 3982.0 318L4144.0 344V362Q4144.0 397 4116.5 420.5Q4089.0 444 4044.0 444Q4002.0 444 3969.5 421.5Q3937.0 399 3922.0 362L3815.0 414Q3831.0 457 3865.5 488.5Q3900.0 520 3947.0 538.0Q3994.0 556 4049.0 556Q4116.0 556 4167.0 531.5Q4218.0 507 4246.5 463.5Q4275.0 420 4275.0 362V0H4151.0V57Q4141.0 46 4129.0 37Q4100.0 13 4063.0 0.5Q4026.0 -12 3981.0 -12ZM4144.0 244 4007.0 221Q3968.0 214 3949.0 196.0Q3930.0 178 3930.0 149Q3930.0 121 3951.5 104.5Q3973.0 88 4005.0 88Q4046.0 88 4077.5 105.5Q4109.0 123 4126.5 154.0Q4144.0 185 4144.0 222Z"/></g></svg>