<svg xmlns="http://www.w3.org/2000/svg" viewBox="0 0 512 512" role="img" aria-label="Censo Infantil">
  <rect width="512" height="512" rx="104" fill="#2563eb"/>
  <g fill="none" stroke="#ffffff" stroke-width="22" stroke-linecap="round" stroke-linejoin="round">
    <path d="M 96 292
      C 58 218, 78 118, 168 78
      C 228 52, 308 54, 362 92
      C 412 128, 432 188, 420 248
      M 96 292
      C 118 348, 178 388, 256 396
      C 334 388, 394 348, 416 292
      C 424 268, 428 256, 420 248"/>
    <rect x="186" y="120" width="140" height="176" rx="20"/>
    <path d="M 214 100 h 84 a 14 14 0 0 1 14 14 v 22 h -112 v -22 a 14 14 0 0 1 14 -14"/>
    <circle cx="256" cy="110" r="10" stroke-width="18"/>
    <line x1="210" y1="160" x2="302" y2="160" stroke-width="18"/>
    <line x1="210" y1="190" x2="276" y2="190" stroke-width="18"/>
  </g>
  <path
    fill="#ffffff"
    d="M 256 270 C 238 250, 208 250, 208 274 C 208 298, 256 324, 256 324 C 256 324, 304 298, 304 274 C 304 250, 274 250, 256 270 Z"
  />
  <path
    fill="none"
    stroke="#93c5fd"
    stroke-width="16"
    stroke-linecap="round"
    stroke-linejoin="round"
    d="M 234 274 L 248 288 L 282 254"
  />
</svg>
