<?xml version="1.0" standalone="no"?>
<!DOCTYPE svg PUBLIC "-//W3C//DTD SVG 20010904//EN"
 "http://www.w3.org/TR/2001/REC-SVG-20010904/DTD/svg10.dtd">
<svg version="1.0" xmlns="http://www.w3.org/2000/svg"
 width="600.000000pt" height="327.000000pt" viewBox="0 0 600.000000 327.000000"
 preserveAspectRatio="xMidYMid meet">
<g transform="translate(0.000000,327.000000) scale(0.100000,-0.100000)"
fill="#000000" stroke="none">
<path d="M5995 1635 c0 -902 1 -1270 2 -817 2 453 2 1191 0 1640 -1 449 -2 79
-2 -823z"/>
<path d="M2810 2785 c-478 -79 -871 -445 -995 -925 -53 -208 -45 -473 22 -684
121 -385 417 -687 795 -810 432 -142 899 -28 1223 298 132 133 219 264 283
426 58 148 102 382 77 409 -20 21 -35 4 -35 -41 0 -57 -36 -225 -66 -310 -63
-176 -158 -324 -294 -458 -131 -131 -279 -223 -448 -280 -358 -120 -756 -57
-1057 167 -426 318 -597 866 -428 1373 78 235 264 476 471 612 417 272 940
258 1335 -35 258 -191 421 -460 476 -784 14 -88 21 -109 36 -112 17 -3 18 3
12 70 -27 335 -245 694 -543 892 -141 94 -264 146 -424 182 -104 22 -333 28
-440 10z"/>
<path d="M2828 2665 c-524 -82 -928 -562 -928 -1104 0 -394 185 -743 505 -956
329 -219 727 -244 1080 -68 245 122 434 329 539 590 37 94 42 113 27 113 -4 0
-18 -28 -31 -62 -60 -166 -156 -314 -287 -439 -243 -231 -570 -336 -889 -284
-600 97 -1012 680 -908 1286 97 566 611 966 1169 909 406 -41 761 -314 906
-697 21 -55 39 -80 39 -54 0 18 -30 93 -65 162 -219 437 -681 678 -1157 604z"/>
<path d="M2856 2560 c-411 -65 -730 -372 -833 -802 -22 -91 -24 -336 -5 -418
54 -224 152 -401 297 -539 152 -144 314 -229 506 -266 48 -9 94 -25 117 -40
47 -32 74 -32 130 1 24 14 83 34 130 44 281 58 532 242 675 497 42 73 80 171
72 184 -15 23 -34 4 -60 -58 -31 -72 -92 -180 -128 -225 l-22 -27 -65 23 c-36
13 -91 29 -122 36 l-58 13 0 42 c0 27 -7 51 -20 67 l-19 25 27 54 c15 30 26
65 24 78 -2 15 0 21 8 16 14 -9 67 13 74 30 3 9 -15 28 -44 50 -36 26 -50 44
-50 60 0 13 -4 27 -10 30 -5 3 -10 1 -10 -6 0 -9 -3 -9 -14 1 -12 9 -18 4 -35
-29 -12 -22 -31 -55 -44 -74 -26 -38 -9 -40 -140 18 -31 14 -85 36 -120 51
-34 14 -69 33 -77 43 -9 10 -44 33 -79 52 -59 32 -65 38 -96 105 -18 39 -41
76 -51 82 -16 9 -17 11 -1 27 37 36 34 120 -4 161 -31 33 -91 33 -124 -1 -29
-28 -32 -66 -10 -109 22 -41 19 -51 -20 -64 -37 -14 -108 -94 -131 -149 -8
-18 -15 -75 -17 -125 -2 -90 -1 -93 21 -96 37 -5 49 13 62 98 7 44 15 80 19
80 3 0 5 -37 3 -82 -3 -68 -1 -84 13 -95 28 -20 -5 -138 -60 -212 -55 -74 -68
-99 -61 -117 3 -8 -1 -14 -10 -14 -8 0 -62 -15 -119 -34 l-105 -34 -34 47
c-144 196 -213 450 -185 681 35 301 189 564 419 720 185 125 424 187 623 161
230 -30 399 -108 559 -260 86 -81 144 -161 204 -281 43 -86 65 -106 72 -67 4
19 -65 160 -110 225 -52 76 -186 209 -259 258 -95 63 -222 120 -320 144 -97
24 -293 34 -383 20z m-60 -711 c26 -29 27 -115 1 -134 -12 -9 -19 -27 -20 -49
l-1 -36 -30 37 c-31 38 -54 86 -63 135 -11 56 73 92 113 47z m-69 -191 c37
-41 41 -61 39 -193 l-1 -130 -34 -3 c-19 -2 -50 -1 -68 3 l-33 6 0 90 c0 86 1
92 32 130 30 37 31 42 20 72 -7 19 -12 36 -12 40 0 16 38 5 57 -15z m-67 -17
c16 -30 13 -38 -30 -85 -33 -36 -42 -55 -58 -127 -14 -64 -23 -85 -36 -87 -17
-4 -18 3 -11 80 4 45 13 97 20 113 13 32 85 125 97 125 4 0 12 -9 18 -19z
m160 -87 c7 -136 -1 -219 -20 -219 -12 0 -16 20 -18 110 -4 132 5 218 21 212
8 -2 14 -40 17 -103z m131 -81 c46 -25 69 -43 69 -55 0 -27 -27 -22 -105 20
l-70 37 -2 60 -3 60 21 -42 c17 -35 34 -50 90 -80z m11 -95 c-13 -49 -12 -66
5 -87 42 -51 103 8 83 79 -5 16 -7 30 -6 30 2 0 62 -25 134 -55 72 -30 137
-56 144 -56 24 -2 -46 -17 -87 -18 -72 -2 -118 -21 -160 -66 -49 -52 -73 -65
-119 -65 -40 0 -40 0 -25 -33 22 -48 89 -61 134 -25 l27 21 -16 -31 c-16 -31
-18 -32 -89 -32 l-73 0 -21 83 c-12 46 -35 107 -52 136 -36 60 -36 61 -16 61
12 0 15 14 15 65 l0 64 63 -30 c34 -16 61 -35 59 -41z m571 -56 c36 -22 34
-29 -10 -35 -48 -5 -56 -1 -42 24 17 32 5 44 -15 15 -12 -19 -14 -31 -7 -40 6
-7 6 -17 1 -25 -7 -12 -13 -12 -39 -1 -44 18 -46 26 -18 63 13 18 27 42 31 54
7 21 7 21 39 -9 18 -16 44 -37 60 -46z m-503 25 c0 -37 -15 -58 -36 -50 -14 5
-20 64 -7 76 3 4 15 7 25 7 14 0 18 -8 18 -33z m-209 -99 c39 -71 86 -238 65
-238 -6 0 -21 -3 -33 -6 -18 -5 -23 -2 -23 12 0 58 -41 146 -99 217 -34 41
-61 76 -61 78 0 2 25 4 57 3 l56 -1 38 -65z m-117 -75 c-17 -41 -103 -163
-115 -163 -4 0 -16 8 -28 18 l-21 17 46 60 c24 33 47 71 50 85 3 14 10 42 16
63 l9 38 29 -40 c29 -39 29 -41 14 -78z m711 70 c30 -15 55 -31 55 -36 0 -20
-35 -75 -66 -104 -29 -27 -34 -39 -34 -77 0 -32 5 -48 18 -55 15 -9 15 -10 -5
-11 -25 0 -31 16 -35 89 l-3 44 -69 20 -68 19 -30 -36 c-16 -20 -35 -36 -42
-36 -25 0 -49 -38 -44 -70 3 -20 0 -30 -9 -30 -19 0 -16 37 8 104 11 32 19 73
17 90 l-3 31 -17 -37 c-23 -51 -59 -73 -100 -62 -42 12 -49 34 -10 34 31 0 71
27 111 73 40 48 55 50 113 21 46 -23 56 -25 89 -15 43 13 87 46 77 57 -5 4
-16 1 -25 -7 -36 -30 -69 -38 -107 -27 -47 15 -46 28 2 29 29 0 108 12 119 18
2 0 27 -11 58 -26z m-625 -152 l17 -59 -64 -7 c-35 -4 -77 -11 -94 -15 -16 -5
-29 -7 -29 -5 0 2 22 33 49 68 26 35 51 77 55 92 l7 28 22 -21 c12 -12 29 -48
37 -81z m440 -11 c-6 -11 -15 -22 -20 -25 -17 -11 -11 -43 12 -65 12 -11 19
-23 15 -26 -9 -9 -67 54 -67 73 0 22 43 71 57 66 9 -4 10 -10 3 -23z m100 -35
l0 -30 -55 3 c-30 2 -55 6 -55 8 0 2 10 19 22 37 20 31 23 32 55 23 28 -9 33
-16 33 -41z m124 33 c18 -25 22 -88 6 -88 -5 0 -10 16 -10 35 0 24 -6 37 -20
45 -11 6 -18 15 -15 21 10 15 23 11 39 -13z m-24 -53 c0 -18 -5 -25 -20 -25
-16 0 -20 7 -20 35 0 33 2 35 20 25 12 -6 20 -21 20 -35z m-280 15 c0 -5 -4
-10 -10 -10 -5 0 -10 5 -10 10 0 6 5 10 10 10 6 0 10 -4 10 -10z m-580 -42
c26 -19 41 -48 25 -48 -14 0 -65 45 -65 57 0 18 6 17 40 -9z m480 -2 c0 -42
10 -56 42 -56 29 0 30 1 24 35 -6 32 -5 35 16 35 14 0 33 -13 50 -34 20 -25
33 -33 53 -30 37 4 41 11 19 35 l-19 22 50 -8 c28 -4 50 -8 50 -8 0 -1 5 -11
11 -22 7 -12 24 -21 43 -23 29 -3 32 -1 26 16 -5 17 -2 19 17 15 47 -11 273
-75 282 -80 10 -7 -78 -90 -159 -151 -97 -72 -239 -135 -376 -166 l-25 -5 30
61 c27 55 31 72 31 152 l0 89 -63 13 c-34 7 -82 23 -105 36 l-42 24 -42 -24
c-23 -13 -70 -29 -105 -36 l-63 -13 -3 -77 c-3 -85 14 -156 49 -200 l20 -25
-38 6 c-87 13 -248 82 -347 148 -71 47 -189 156 -179 165 4 4 49 20 98 34 50
15 101 31 115 35 19 6 32 4 49 -10 13 -11 32 -19 43 -19 16 0 19 5 16 25 -6
28 -2 29 125 44 l68 8 14 -34 c13 -31 17 -33 64 -33 27 0 56 3 65 6 26 10 18
34 -14 48 -17 7 -28 14 -26 17 2 2 34 5 70 7 64 3 66 3 66 -22z m-120 -22 c12
-13 8 -15 -31 -13 -54 3 -69 10 -43 20 32 12 61 10 74 -7z m110 -74 c22 -11
66 -26 98 -34 l57 -13 -1 -75 c-2 -92 -32 -167 -93 -226 -55 -53 -94 -69 -127
-51 -99 53 -155 148 -162 274 l-4 82 49 7 c27 3 69 17 94 30 24 13 45 24 47
25 1 0 21 -8 42 -19z"/>
<path d="M2960 796 l0 -44 -45 6 -45 5 0 -47 0 -46 45 0 45 0 0 -45 0 -45 46
0 46 0 -4 45 -3 45 42 0 43 0 0 46 0 46 -40 -4 -40 -4 0 43 0 43 -45 0 -45 0
0 -44z m58 -2 c0 -29 29 -65 51 -63 32 3 41 -2 41 -21 0 -15 -7 -20 -26 -20
-42 0 -64 -17 -64 -51 0 -24 -4 -30 -17 -27 -10 2 -20 14 -21 28 -5 34 -20 50
-47 50 -30 0 -54 27 -31 36 9 3 22 4 30 1 17 -7 48 35 50 67 2 32 34 31 34 0z"/>
<path d="M2946 2347 c-9 -23 -16 -55 -16 -70 0 -15 -2 -27 -5 -27 -14 0 -85
52 -103 75 -27 34 -36 19 -36 -61 0 -95 52 -171 130 -190 l28 -7 -30 -23 c-16
-13 -45 -27 -64 -30 -62 -10 -62 -11 -46 -43 17 -32 73 -71 102 -71 11 1 28
15 39 32 16 25 33 36 81 50 78 23 103 51 124 135 12 50 22 71 37 78 12 5 24
17 26 27 4 14 12 17 35 12 16 -3 40 -1 52 6 20 11 21 14 7 21 -18 11 -87 8
-87 -3 0 -5 -5 -8 -11 -8 -5 0 -7 5 -4 10 8 12 -21 60 -35 60 -18 0 -10 -50
11 -71 25 -25 17 -39 -9 -16 -26 24 -68 21 -86 -5 -9 -12 -17 -20 -19 -17 -43
60 -78 121 -83 147 -9 43 -18 40 -38 -11z m69 -97 c43 -58 45 -80 5 -47 -16
14 -39 28 -50 32 -21 7 -26 37 -13 84 l6 25 9 -24 c5 -12 24 -44 43 -70z
m-184 33 c8 -9 50 -33 94 -53 44 -20 86 -44 94 -53 19 -24 38 -21 57 8 22 33
50 48 75 40 19 -6 19 -8 4 -25 -9 -9 -20 -41 -24 -70 -13 -82 -47 -114 -141
-134 -26 -5 -50 -25 -74 -60 -13 -19 -14 -19 -49 3 -52 32 -53 47 -5 55 28 5
52 18 76 42 l36 36 -61 28 c-70 32 -95 69 -106 153 -7 49 1 59 24 30z"/>
<path d="M3214 2344 c-9 -37 11 -77 33 -66 10 5 31 15 48 23 38 18 49 55 13
44 -12 -4 -31 -17 -40 -29 l-18 -21 0 22 c0 52 -25 71 -36 27z"/>
<path d="M3187 2183 c-11 -10 -8 -53 3 -53 6 0 10 14 10 30 0 31 -2 35 -13 23z"/>
<path d="M3950 1743 c-6 -32 -14 -68 -17 -80 l-5 -22 -36 24 c-52 35 -57 31
-23 -18 l30 -44 -67 -13 c-113 -22 -115 -25 -24 -45 45 -10 82 -21 82 -24 0
-3 -9 -17 -20 -31 -33 -42 -24 -56 16 -25 19 15 37 25 40 23 2 -3 11 -41 20
-86 9 -45 20 -80 24 -77 3 2 12 40 20 84 7 45 16 81 18 81 3 0 20 -12 39 -26
44 -33 53 -24 19 20 -14 19 -26 37 -26 39 0 2 39 13 86 22 47 10 79 21 72 25
-7 4 -46 13 -85 20 -40 7 -73 15 -73 18 0 3 12 20 26 39 33 44 24 53 -20 19
-19 -14 -36 -26 -39 -26 -2 0 -10 36 -17 80 -7 44 -17 80 -21 80 -4 0 -13 -26
-19 -57z m15 -151 c-3 -3 -10 -1 -16 5 -7 7 -7 29 3 74 l13 64 3 -69 c2 -37 0
-71 -3 -74z m73 38 c-12 -19 -28 -27 -28 -14 0 6 30 33 38 34 1 0 -3 -9 -10
-20z m-123 -1 c11 -17 -1 -21 -15 -4 -8 9 -8 15 -2 15 6 0 14 -5 17 -11z m213
-65 c4 -4 -1 -4 -11 -1 -10 4 -44 7 -74 7 -46 0 -53 2 -44 14 9 11 20 11 67 0
31 -7 59 -16 62 -20z m-148 0 c0 -9 -5 -14 -12 -12 -18 6 -21 28 -4 28 9 0 16
-7 16 -16z m-44 -9 c-4 -12 -93 -8 -116 5 -9 6 10 8 52 7 40 -1 66 -6 64 -12z
m84 -15 c0 -5 -2 -10 -4 -10 -3 0 -8 5 -11 10 -3 6 -1 10 4 10 6 0 11 -4 11
-10z m-26 -8 c2 -4 -2 -34 -9 -67 l-13 -60 -1 68 c-1 59 8 83 23 59z m-74 -21
c0 -5 -7 -12 -16 -15 -14 -5 -15 -4 -4 9 14 17 20 19 20 6z m118 -11 c7 -11
11 -20 9 -20 -2 0 -12 9 -22 20 -10 11 -14 20 -9 20 5 0 15 -9 22 -20z"/>
</g>
</svg>
