<svg xmlns="http://www.w3.org/2000/svg" viewBox="0 0 600 327" role="img" aria-label="Censo Infantil">
  <g transform="translate(24, 16) scale(0.58)">
    <g fill="none" stroke="#2563eb" stroke-width="22" stroke-linecap="round" stroke-linejoin="round">
      <path d="M 96 292
        C 58 218, 78 118, 168 78
        C 228 52, 308 54, 362 92
        C 412 128, 432 188, 420 248
        M 96 292
        C 118 348, 178 388, 256 396
        C 334 388, 394 348, 416 292
        C 424 268, 428 256, 420 248"/>
      <rect x="186" y="120" width="140" height="176" rx="20"/>
      <path d="M 214 100 h 84 a 14 14 0 0 1 14 14 v 22 h -112 v -22 a 14 14 0 0 1 14 -14"/>
      <circle cx="256" cy="110" r="10" stroke-width="18"/>
      <line x1="210" y1="160" x2="302" y2="160" stroke-width="18"/>
      <line x1="210" y1="190" x2="276" y2="190" stroke-width="18"/>
    </g>
    <path
      fill="#2563eb"
      d="M 256 270 C 238 250, 208 250, 208 274 C 208 298, 256 324, 256 324 C 256 324, 304 298, 304 274 C 304 250, 274 250, 256 270 Z"
    />
    <path
      fill="none"
      stroke="#93c5fd"
      stroke-width="16"
      stroke-linecap="round"
      stroke-linejoin="round"
      d="M 234 274 L 248 288 L 282 254"
    />
  </g>
  <text
    x="248"
    y="148"
    font-family="Inter, system-ui, -apple-system, sans-serif"
    font-size="52"
    font-weight="700"
    fill="#1e293b"
    letter-spacing="-0.02em"
  >Censo Infantil</text>
  <text
    x="250"
    y="198"
    font-family="Inter, system-ui, -apple-system, sans-serif"
    font-size="24"
    font-weight="500"
    fill="#64748b"
    letter-spacing="0.06em"
  >HISTORIA CLÍNICA</text>
  <rect x="248" y="218" width="320" height="4" rx="2" fill="#2563eb"/>
</svg>
